<svg width="512" height="562" viewBox="0 0 130 143" fill="none" xmlns="http://www.w3.org/2000/svg">
  <rect x="4" y="95" width="48" height="48" rx="8" fill="#9747FF"/>
  <rect x="8.56" y="101" width="10.0418" height="10.08" rx="1" fill="#0E1014"/>
  <rect x="23.0527" y="101" width="10.0418" height="10.08" rx="1" fill="#0E1014"/>
  <rect width="10.0418" height="10.08" rx="1" transform="matrix(1 0 0 -1 20.1836 137)" fill="#0E1014"/>
  <rect width="10.0418" height="10.08" rx="1" transform="matrix(1 0 0 -1 34.6763 137)" fill="#0E1014"/>
  <line y1="-0.5" x2="27.0366" y2="-0.5" transform="matrix(0.424476 0.905439 -0.904195 0.427121 13.011 106.76)" stroke="#212121"/>
  <line y1="-0.5" x2="27.0366" y2="-0.5" transform="matrix(0.424476 0.905439 -0.904195 0.427121 27.5036 106.76)" stroke="#212121"/>
  <rect x="14.0592" y="113.96" width="10.0418" height="10.08" rx="1" fill="#0E1014"/>
  <rect x="28.5519" y="113.96" width="10.0418" height="10.08" rx="1" fill="#0E1014"/>
  <rect x="37.3982" y="101" width="10.0418" height="10.08" rx="1" fill="#0E1014"/>
</svg>
